HIERARCHY
ROOT root
{
	OFFSET	0	13.1	24.9
	CHANNELS 6  Xposition Yposition Zposition Xrotation Yrotation Zrotation
	JOINT spine_1
	{
		OFFSET	0	9.99999	0
		CHANNELS 3  Xrotation Yrotation Zrotation
		JOINT spine_2
		{
			OFFSET	0	112	-10
			CHANNELS 3  Xrotation Yrotation Zrotation
			JOINT spine_3
			{
				OFFSET	0	206.5	19.3
				CHANNELS 3  Xrotation Yrotation Zrotation
				JOINT spine_4
				{
					OFFSET	0	110.4	14.6
					CHANNELS 3  Xrotation Yrotation Zrotation
					JOINT neck_1
					{
						OFFSET	0	71.8	-50.3
						CHANNELS 3  Xrotation Yrotation Zrotation
						JOINT neck_2
						{
							OFFSET	0	86.2	-25.8
							CHANNELS 3  Xrotation Yrotation Zrotation
							JOINT head_ee
							{
								OFFSET	0	179.8	-8.7
								CHANNELS 3  Xrotation Yrotation Zrotation
								End Site
								{
									OFFSET	1	0	0
								}
							}
						}
					}
					JOINT left_clavicle
					{
						OFFSET	-43.2	22.4	-70.8
						CHANNELS 3  Xrotation Yrotation Zrotation
						JOINT left_shoulder
						{
							OFFSET	-93.9	-5.79999	48.7
							CHANNELS 3  Xrotation Yrotation Zrotation
							JOINT left_elbow
							{
								OFFSET	-291.4	-30.8	15.2
								CHANNELS 3  Xrotation Yrotation Zrotation
								JOINT left_lowarm_twist
								{
									OFFSET	-110.7	-3.89999	13.6
									CHANNELS 3  Xrotation Yrotation Zrotation
									JOINT left_hand
									{
										OFFSET	-110.7	-3.89999	13.6
										CHANNELS 3  Xrotation Yrotation Zrotation
										JOINT left_ee
										{
											OFFSET	-80.8	-5.10001	12.1
											CHANNELS 3  Xrotation Yrotation Zrotation
											End Site
											{
												OFFSET	1	0	0
											}
										}
									}
								}
							}
						}
					}
					JOINT right_clavicle
					{
						OFFSET	43.2	22.4	-70.8
						CHANNELS 3  Xrotation Yrotation Zrotation
						JOINT right_shoulder
						{
							OFFSET	93.9	-5.79999	48.7
							CHANNELS 3  Xrotation Yrotation Zrotation
							JOINT right_elbow
							{
								OFFSET	291.4	-30.8	15.2
								CHANNELS 3  Xrotation Yrotation Zrotation
								JOINT right_lowarm_twist
								{
									OFFSET	110.7	-3.89999	13.6
									CHANNELS 3  Xrotation Yrotation Zrotation
									JOINT right_hand
									{
										OFFSET	110.7	-3.89999	13.6
										CHANNELS 3  Xrotation Yrotation Zrotation
										JOINT right_ee
										{
											OFFSET	80.8	-5.10001	12.1
											CHANNELS 3  Xrotation Yrotation Zrotation
											End Site
											{
												OFFSET	1	0	0
											}
										}
									}
								}
							}
						}
					}
				}
			}
		}
	}
	JOINT left_hip
	{
		OFFSET	-82.8	-127.5	0.300001
		CHANNELS 3  Xrotation Yrotation Zrotation
		JOINT left_knee
		{
			OFFSET	-28.2	-396.7	2.2
			CHANNELS 3  Xrotation Yrotation Zrotation
			JOINT left_ankle
			{
				OFFSET	-11.7	-411.3	35.4
				CHANNELS 3  Xrotation Yrotation Zrotation
				JOINT left_toes
				{
					OFFSET	0	-60	-88.6
					CHANNELS 3  Xrotation Yrotation Zrotation
					JOINT left_foot_ee
					{
						OFFSET	-22.5	-16.5	-42.2
						CHANNELS 3  Xrotation Yrotation Zrotation
						End Site
						{
							OFFSET	1	0	0
						}
					}
				}
			}
		}
	}
	JOINT right_hip
	{
		OFFSET	82.8	-127.5	0.300001
		CHANNELS 3  Xrotation Yrotation Zrotation
		JOINT right_knee
		{
			OFFSET	28.2	-396.7	2.2
			CHANNELS 3  Xrotation Yrotation Zrotation
			JOINT right_ankle
			{
				OFFSET	11.7	-411.3	35.4
				CHANNELS 3  Xrotation Yrotation Zrotation
				JOINT right_toes
				{
					OFFSET	0	-60	-88.6
					CHANNELS 3  Xrotation Yrotation Zrotation
					JOINT right_foot_ee
					{
						OFFSET	22.5	-16.5	-42.2
						CHANNELS 3  Xrotation Yrotation Zrotation
						End Site
						{
							OFFSET	1	0	0
						}
					}
				}
			}
		}
	}
}
MOTION
Frames: 16
Frame Time: 0.02
1372.99 693.542 -644.182 -154.189 -71.9802 -158.748 3.47886 0.10171 1.04331 3.47947 0.0351191 1.04766 3.47984 -0.12291 1.04102 3.47833 0.043033 1.04737 -11.8072 13.0568 -2.01608 -12.1708 26.0445 1.83095 -0.0 0.0 -0.0 -2.43614 13.7228 -2.37157 8.26168 -16.6712 64.9115 4.48934 -65.7669 2.90331 -28.0589 -1.77973 3.07805 -2.87198 -0.721021 -19.9267 -0.0 0.0 -0.0 5.9004 13.0237 -10.898 -31.6881 26.087 -65.4112 0.981473 25.9282 -0.225948 -18.5012 1.00538 -2.13116 3.75471 -31.224 -34.0338 0.0 0.0 0.0 -0.193544 0.0301948 12.2599 -19.2993 0.303318 2.93212 42.0354 21.041 -5.23899 1.89042 -0.0 -0.0 -0.0 0.0 -0.0 45.4056 12.5681 -5.07243 -6.52044 -0.213027 -0.977482 -22.9019 11.5815 -3.67154 -21.4929 0.0 0.0 0.0 0.0 0.0 
1388.04 689.736 -644.363 -152.721 -73.0868 -157.112 3.5224 0.103891 1.02067 3.52298 0.0387355 1.02521 3.52341 -0.115181 1.01946 3.52197 0.0472608 1.02486 -11.3528 12.9775 -2.29394 -11.6751 26.0513 1.42703 -0.0 0.0 -0.0 -2.35703 13.8768 -2.21448 6.70343 -16.5844 65.9152 4.26524 -64.6525 2.69986 -27.9494 -1.76998 3.06795 -2.83005 -0.726519 -19.6309 -0.0 0.0 -0.0 5.8445 13.3759 -10.7569 -31.389 26.1952 -65.1038 0.997315 26.2907 -0.23292 -18.2798 0.989363 -2.10776 3.82635 -31.1144 -34.5042 0.0 0.0 0.0 -0.783608 0.0888217 12.5858 -20.1833 0.293415 3.0674 41.7975 21.2962 -5.22459 1.77725 -0.0 -0.0 -0.0 0.0 -0.0 45.1442 12.7221 -4.36255 -7.94174 -0.244601 -1.1933 -23.0567 12.1457 -3.70996 -21.5479 0.0 0.0 0.0 0.0 0.0 
1418.44 689.066 -635.735 -157.211 -73.4672 -161.68 3.49416 0.0337149 0.933429 3.49464 -0.0257473 0.933683 3.494 -0.165712 0.919222 3.49282 -0.0184653 0.933855 -9.57081 12.3933 -2.94222 -9.72196 25.2934 0.198953 -0.0 0.0 -0.0 -2.50506 13.8929 -2.45445 5.3715 -17.7382 67.3563 3.38699 -59.1905 1.92408 -26.3671 -1.63127 2.91997 -2.72156 0.116785 -18.4457 -0.0 0.0 -0.0 5.91289 13.6726 -10.8836 -31.3211 27.5601 -64.7751 1.00914 26.5599 -0.238183 -19.1145 1.05021 -2.19564 3.88154 -31.0779 -34.8732 0.0 0.0 0.0 -1.32584 0.720363 12.3981 -25.2035 0.197704 3.83157 39.026 24.959 -5.07205 3.85854 -0.0 -0.0 -0.0 0.0 -0.0 44.7579 13.1142 -4.21306 -15.739 -0.322042 -2.38627 -20.9065 13.5745 -3.39717 -20.1736 0.0 0.0 0.0 0.0 0.0 
1443.24 695.438 -630.191 -161.158 -74.3733 -165.31 3.29161 -0.036975 1.09433 3.29227 -0.106531 1.08976 3.28997 -0.272822 1.06042 3.28841 -0.101935 1.0902 -8.82023 11.9799 -3.03324 -8.90338 24.5434 -0.171449 -0.0 0.0 -0.0 -2.6134 13.9097 -2.62921 4.27076 -18.761 68.3967 2.92395 -55.368 1.53431 -25.3247 -1.54215 2.82044 -2.61981 0.701681 -17.4427 -0.0 0.0 -0.0 5.93222 13.881 -10.9114 -31.2608 28.4367 -64.6817 1.02047 26.8165 -0.243271 -19.6983 1.09352 -2.25658 3.92611 -30.7886 -35.1546 0.0 0.0 0.0 -1.62144 1.74875 12.3367 -29.6073 0.0589064 4.49301 36.7041 27.2308 -4.91135 5.28798 -0.0 -0.0 -0.0 0.0 -0.0 44.3269 13.009 -4.63678 -21.3543 -0.277085 -3.24634 -19.4662 14.6962 -3.18832 -19.1827 0.0 0.0 0.0 0.0 0.0 
1460.66 701.222 -627.706 -164.592 -75.0439 -168.582 3.0389 0.00917988 1.19385 3.03969 -0.0668011 1.19202 3.03803 -0.254418 1.16647 3.03614 -0.0670174 1.192 -8.20515 11.5881 -3.26274 -8.23447 23.9395 -0.631631 -0.0 0.0 -0.0 -3.0267 14.0144 -3.28815 2.5672 -19.4654 69.1054 2.59146 -52.0735 1.26616 -24.4964 -1.47264 2.7402 -2.53125 1.26242 -16.5495 -0.0 0.0 -0.0 6.21595 14.4626 -11.4805 -29.8257 29.3318 -64.4865 1.0376 27.2023 -0.25105 -20.1015 1.1238 -2.29841 3.94919 -30.5779 -35.2967 0.0 0.0 0.0 -1.42939 2.56998 11.4858 -32.591 -0.0638644 4.93436 34.9296 28.4941 -4.7648 6.26621 -0.0 -0.0 -0.0 0.0 -0.0 43.0187 12.8099 -4.46105 -24.7347 -0.209472 -3.76059 -18.4577 15.5705 -3.04251 -18.5008 0.0 0.0 0.0 0.0 0.0 
1477.14 706.645 -623.045 -166.708 -75.3044 -170.938 2.82166 0.0669174 1.35265 2.82268 -0.0192828 1.35417 2.82194 -0.238162 1.3332 2.81946 -0.0246393 1.35408 -7.80798 11.3053 -3.43433 -7.80406 23.5135 -0.954744 -0.0 0.0 -0.0 -3.31898 14.0901 -3.75344 1.26397 -19.988 69.5642 2.37793 -49.6638 1.10049 -23.9005 -1.42337 2.68188 -2.4644 1.68111 -15.8806 -0.0 0.0 -0.0 6.33073 14.9679 -11.6938 -28.9212 29.9494 -64.175 1.05085 27.4989 -0.257137 -20.388 1.1455 -2.32801 3.96603 -30.4299 -35.4012 0.0 0.0 0.0 -1.25075 3.15638 10.7528 -34.6653 -0.162707 5.23724 33.6962 29.249 -4.65422 6.95576 -0.0 -0.0 -0.0 0.0 -0.0 41.8928 12.7164 -4.25306 -26.9628 -0.148362 -4.09705 -17.7126 16.1778 -2.93289 -18.0163 0.0 0.0 0.0 0.0 0.0 
1494.41 702.36 -616.346 -170.262 -74.2753 -175.039 2.59326 0.199429 1.4583 2.59444 0.106239 1.46803 2.59694 -0.138445 1.46534 2.59395 0.0946905 1.46882 -7.74848 11.18 -3.56663 -7.73664 23.3701 -1.1278 -0.0 0.0 -0.0 -3.93823 14.218 -4.74561 0.0084928 -20.3336 70.6294 2.18089 -47.2057 0.953029 -22.7344 -1.32871 2.56628 -2.35331 2.38195 -14.7728 -0.0 0.0 -0.0 6.41113 16.2243 -11.7822 -27.7054 30.6196 -63.5743 1.12269 29.0796 -0.291187 -20.6838 1.16805 -2.35846 3.97217 -30.5901 -35.4551 0.0 0.0 0.0 -0.909761 3.64415 8.52757 -35.7501 -0.218759 5.3942 32.7093 28.2285 -4.50833 7.33753 -0.0 -0.0 -0.0 0.0 -0.0 40.4513 13.559 -2.93873 -26.8179 -0.152735 -4.07524 -15.8534 16.7904 -2.63523 -17.502 0.0 0.0 0.0 0.0 0.0 
1503.17 713.152 -616.268 -170.639 -73.4978 -175.95 2.40125 0.296145 1.56758 2.4026 0.195808 1.58324 2.40785 -0.0744351 1.59356 2.40435 0.178141 1.58533 -7.89723 10.7919 -4.19414 -7.87608 23.0924 -1.80918 -0.0 0.0 -0.0 -4.38233 14.0405 -5.51911 -1.29462 -20.7283 71.6597 1.88441 -43.0252 0.742825 -21.1621 -1.20486 2.40744 -1.97576 3.24689 -11.7849 -0.0 0.0 -0.0 5.8817 17.282 -10.5635 -26.6268 30.5007 -63.1141 1.34488 33.6704 -0.406961 -21.0243 1.19421 -2.39336 3.85918 -30.612 -34.6866 0.0 0.0 0.0 0.35824 5.16222 7.44311 -34.5371 -0.156282 5.21863 27.1208 27.4458 -3.82543 7.7276 -0.0 -0.0 -0.0 0.0 -0.0 39.2313 13.4879 -3.14595 -26.7242 -0.155532 -4.06113 -12.9834 16.0289 -2.13911 -17.1156 0.0 0.0 0.0 0.0 0.0 
1515.95 721.329 -606.42 -171.615 -71.7574 -176.453 2.13376 0.330729 1.60598 2.13517 0.22788 1.62377 2.14158 -0.0572755 1.63867 2.13789 0.202206 1.62716 -7.88734 10.4918 -4.46559 -7.85568 22.723 -2.14993 -0.0 0.0 -0.0 -4.626 13.9075 -5.95482 -2.04513 -21.0174 72.4533 1.55598 -37.6219 0.530061 -19.3094 -1.0646 2.21603 -1.47134 5.50394 -7.36012 -0.0 0.0 -0.0 5.80671 17.6141 -10.3762 -24.893 31.1105 -63.3166 1.56826 37.8399 -0.537574 -21.7439 1.25017 -2.4666 3.60244 -30.181 -32.9267 0.0 0.0 0.0 1.44255 6.90735 7.81598 -34.1326 -0.136277 5.1598 20.5965 27.5176 -2.99224 9.20354 -0.0 -0.0 -0.0 0.0 -0.0 38.2699 13.2419 -5.05325 -25.955 -0.177626 -3.94515 -13.1451 16.3932 -2.17255 -15.3639 0.0 0.0 0.0 0.0 0.0 
1527.03 722.698 -604.49 -174.117 -69.9899 -178.371 2.04581 0.501475 1.67943 2.0473 0.393608 1.70792 2.05909 0.088892 1.75042 2.055 0.364182 1.71444 -7.34887 10.3249 -4.55707 -7.2804 22.465 -2.39237 -0.0 0.0 -0.0 -4.76916 13.993 -6.17294 -2.86493 -20.9459 73.0069 1.3058 -32.8954 0.385513 -18.0118 -0.970106 2.07936 -1.09034 7.40991 -3.9985 -0.0 0.0 -0.0 5.92289 18.2312 -10.5789 -22.4499 31.5061 -63.2563 1.72957 40.5857 -0.639582 -22.2514 1.2902 -2.51784 3.39083 -29.7156 -31.4815 0.0 0.0 0.0 2.50007 7.82942 7.93897 -34.6057 -0.159713 5.22859 16.0245 27.5483 -2.37015 10.1327 -0.0 -0.0 -0.0 0.0 -0.0 36.5381 13.2751 -5.95386 -25.6916 -0.184832 -3.90537 -13.3139 16.6468 -2.20545 -14.1338 0.0 0.0 0.0 0.0 0.0 
1537.09 735.355 -605.631 -175.127 -68.6958 179.912 1.99891 0.593132 2.03531 2.00109 0.462447 2.0689 2.0179 0.0920656 2.11794 2.01189 0.425326 2.07685 -7.47249 10.1994 -4.14836 -7.42374 21.9445 -1.98326 -0.0 0.0 -0.0 -4.82542 14.9179 -6.04348 -3.39663 -20.7457 73.415 1.14541 -29.5697 0.302315 -17.1042 -0.905867 1.98252 -0.883107 9.0381 -1.93674 -0.0 0.0 -0.0 6.18651 18.6419 -11.1171 -20.319 31.8234 -63.2744 1.85384 42.5583 -0.72206 -22.6139 1.31906 -2.55422 3.2007 -28.8267 -30.1244 0.0 0.0 0.0 3.01123 8.91678 6.58 -35.0825 -0.183913 5.29773 12.6145 27.7871 -1.89091 10.427 -0.0 -0.0 -0.0 0.0 -0.0 35.2928 14.4024 -4.86483 -25.5643 -0.188251 -3.88612 -13.758 16.9066 -2.28498 -12.9344 0.0 0.0 0.0 0.0 0.0 
1556.63 740.316 -602.747 -176.632 -67.689 177.387 1.85615 0.556743 2.41629 1.85931 0.401907 2.44679 1.87666 -0.040057 2.47924 1.86825 0.351875 2.45448 -7.42933 9.74601 -5.30404 -7.33919 21.9199 -3.2506 -0.0 0.0 -0.0 -4.76453 16.2478 -5.62235 -4.4496 -19.7478 73.8552 0.984927 -26.0074 0.227461 -16.6469 -0.874089 1.93335 -0.754554 10.4906 -0.480611 -0.0 0.0 -0.0 6.47412 18.7831 -11.7298 -18.7068 31.3534 -62.8734 1.90351 43.3134 -0.755889 -23.7131 1.40799 -2.66343 2.81094 -27.4709 -27.3968 0.0 0.0 0.0 5.6984 10.9442 4.52481 -35.9667 -0.230308 5.42541 7.94401 28.1885 -1.21117 9.35726 -0.0 -0.0 -0.0 0.0 -0.0 32.0741 15.6521 -2.8284 -25.4728 -0.19068 -3.8723 -14.0719 17.2997 -2.34562 -10.6806 0.0 0.0 0.0 0.0 0.0 
1569.9 751.237 -602.194 -178.51 -67.4864 175.773 1.72927 0.542062 2.73016 1.73334 0.367305 2.75909 1.75134 -0.135853 2.7801 1.74069 0.304745 2.76669 -8.26537 9.45053 -6.6107 -8.1735 22.2825 -4.45093 -0.0 0.0 -0.0 -4.32289 17.2005 -4.69555 -5.88891 -18.9721 72.7542 0.716529 -19.5422 0.123395 -16.1835 -0.842283 1.88326 -0.692948 11.9903 0.555545 -0.0 0.0 -0.0 6.70138 18.6603 -12.233 -17.1397 31.0895 -62.9416 2.07861 45.8323 -0.87881 -23.366 1.37969 -2.62913 2.53735 -26.461 -25.4646 0.0 0.0 0.0 6.37766 16.1796 3.71928 -39.8092 -0.454675 5.97157 6.30075 27.0775 -0.958428 9.3827 -0.0 -0.0 -0.0 0.0 -0.0 30.021 15.6917 -2.23892 -25.4271 -0.191886 -3.86539 -16.3466 17.8029 -2.74174 -8.423 0.0 0.0 0.0 0.0 0.0 
1577.68 743.294 -604.198 178.915 -66.368 172.498 1.52686 0.549715 3.06434 1.53202 0.353705 3.09307 1.55175 -0.220313 3.10542 1.5384 0.272652 3.10126 -8.85027 9.26517 -7.51283 -8.75471 22.5438 -5.26922 -0.0 0.0 -0.0 -3.94818 18.0565 -3.91814 -6.81382 -18.263 72.1544 0.532196 -14.7693 0.0689756 -15.7442 -0.812515 1.83556 -0.655942 13.1867 1.29865 -0.0 0.0 -0.0 6.63809 18.4931 -12.1083 -16.9207 30.613 -62.4192 2.178 47.1678 -0.950908 -23.1822 1.36478 -2.61089 2.32635 -25.7125 -23.9754 0.0 0.0 0.0 7.7426 19.7868 2.13061 -42.1682 -0.610438 6.29911 5.14512 26.5758 -0.782744 9.312 -0.0 -0.0 -0.0 0.0 -0.0 28.5461 15.7654 -1.62692 -25.3818 -0.193075 -3.85854 -17.906 18.169 -3.01568 -6.83619 0.0 0.0 0.0 0.0 0.0 
1582.11 743.221 -605.459 178.511 -65.6276 171.897 1.49795 0.530574 3.32253 1.50403 0.318199 3.34951 1.52336 -0.304086 3.35082 1.50777 0.228624 3.35681 -9.2717 9.15213 -8.12475 -9.17399 22.7323 -5.81379 -0.0 0.0 -0.0 -3.41916 18.6445 -2.98186 -7.3572 -17.7666 71.7016 0.408284 -11.4341 0.0408753 -15.5471 -0.799274 1.81408 -0.733795 15.5692 1.82588 -0.0 0.0 -0.0 7.00347 19.3275 -12.8391 -14.1805 30.5035 -62.7214 2.12635 46.482 -0.913243 -22.3303 1.29646 -2.52578 1.94103 -24.3999 -21.257 0.0 0.0 0.0 10.2194 22.2671 0.0435756 -41.9803 -0.597535 6.27325 4.34262 26.519 -0.661814 9.11284 -0.0 -0.0 -0.0 0.0 -0.0 26.7674 15.3957 -0.590423 -24.7037 -0.210231 -3.75589 -16.7227 18.7065 -2.82814 -4.95315 0.0 0.0 0.0 0.0 0.0 
1591.16 751.067 -606.721 177.111 -65.2652 170.195 1.31931 0.565979 3.52039 1.32614 0.340965 3.54922 1.34842 -0.329357 3.55032 1.33091 0.235117 3.55779 -9.64485 9.06921 -8.58749 -9.54847 22.8698 -6.21167 -0.0 0.0 -0.0 -3.0166 19.2386 -2.25395 -7.88409 -17.4104 71.57 0.323386 -9.10141 0.0257391 -15.4133 -0.79033 1.79947 -0.788984 17.2351 2.19506 -0.0 0.0 -0.0 7.44917 20.0205 -13.7585 -11.9193 30.5031 -63.0014 2.09056 45.9964 -0.887392 -21.7475 1.25046 -2.46697 1.65806 -23.5209 -19.2739 0.0 0.0 0.0 12.9534 24.1583 -1.19915 -41.4083 -0.558785 6.19429 3.78611 26.4166 -0.577474 8.96771 -0.0 -0.0 -0.0 0.0 -0.0 25.4325 14.9768 -0.186736 -24.2287 -0.221523 -3.68387 -15.7737 19.0144 -2.67341 -3.60089 0.0 0.0 0.0 0.0 0.0 
